# xmcd
#
# Track frame offsets:
# 150
# 15909
# 29272
# 44684
# 59816
# 72605
# 85631
# 98839
# 114980
# 129811
# 145570
# 159703
# 172561
# 184882
# 206856
# 222509
# 236922
# 248265
# 259226
# 274932
#
# Disc length: 3813 seconds
#
# Revision: 1
# Processed by: cddbd v1.5.1PL0 Copyright (c) Steve Scherf et al.
# Submitted via: CedeCatalogueitor 2.6.0.4 http://personales.ya.com/cdcatalogueitor
#
DISCID=1c0ee314
DTITLE=Tobe Keith - Top 100 Country
DYEAR=1900
DGENRE=
TTITLE0=Working Man's
TTITLE1=It Sure Is Monday
TTITLE2=Independence Day
TTITLE3=Not On Your Love
TTITLE4=Third Rock From The Sun
TTITLE5=No News
TTITLE6=Except For Monday
TTITLE7=Only Here For A Little While
TTITLE8=Thank God For You
TTITLE9=When I Close My Eyes
TTITLE10=Shake The Sugar Tree
TTITLE11=Lifestiles Of The No So Rich And Famous
TTITLE12=Her Man
TTITLE13=You're Gonna Miss Me When I'm Gone
TTITLE14=Nobody Knows
TTITLE15=Look At Your Girl
TTITLE16=Bad Dog, No Biscuit
TTITLE17=Timen Off From Good Behaviour
TTITLE18=You Have Right To Remain Silent
TTITLE19=You Ain't Much Fun
EXTD=
EXTT0=
EXTT1=
EXTT2=
EXTT3=
EXTT4=
EXTT5=
EXTT6=
EXTT7=
EXTT8=
EXTT9=
EXTT10=
EXTT11=
EXTT12=
EXTT13=
EXTT14=
EXTT15=
EXTT16=
EXTT17=
EXTT18=
EXTT19=
PLAYORDER=
